<mxfile host="app.diagrams.net" agent="Mozilla/5.0 (Windows NT 10.0; Win64; x64) AppleWebKit/537.36 (KHTML, like Gecko) Chrome/136.0.0.0 Safari/537.36" version="27.0.3">
  <diagram name="第 1 页" id="d2YSBmdRxavNXiFx8oym">
    <mxGraphModel dx="1816" dy="573" grid="1" gridSize="10" guides="1" tooltips="1" connect="1" arrows="1" fold="1" page="1" pageScale="1" pageWidth="827" pageHeight="1169" math="0" shadow="0">
      <root>
        <mxCell id="0" />
        <mxCell id="1" parent="0" />
        <mxCell id="mECNEJzvqQ6ksLUKwndL-8" value="" style="edgeStyle=none;curved=1;rounded=0;orthogonalLoop=1;jettySize=auto;html=1;fontSize=12;startSize=8;endSize=8;" edge="1" parent="1" source="mECNEJzvqQ6ksLUKwndL-2" target="mECNEJzvqQ6ksLUKwndL-3">
          <mxGeometry relative="1" as="geometry" />
        </mxCell>
        <mxCell id="mECNEJzvqQ6ksLUKwndL-2" value="正常流量分析" style="rounded=0;whiteSpace=wrap;html=1;" vertex="1" parent="1">
          <mxGeometry x="150" y="100" width="120" height="60" as="geometry" />
        </mxCell>
        <mxCell id="mECNEJzvqQ6ksLUKwndL-6" value="" style="edgeStyle=none;curved=1;rounded=0;orthogonalLoop=1;jettySize=auto;html=1;fontSize=12;startSize=8;endSize=8;" edge="1" parent="1" source="mECNEJzvqQ6ksLUKwndL-3" target="mECNEJzvqQ6ksLUKwndL-5">
          <mxGeometry relative="1" as="geometry" />
        </mxCell>
        <mxCell id="mECNEJzvqQ6ksLUKwndL-7" value="时间解析器" style="edgeLabel;html=1;align=center;verticalAlign=middle;resizable=0;points=[];fontSize=12;" vertex="1" connectable="0" parent="mECNEJzvqQ6ksLUKwndL-6">
          <mxGeometry x="-0.0683" y="4" relative="1" as="geometry">
            <mxPoint as="offset" />
          </mxGeometry>
        </mxCell>
        <mxCell id="mECNEJzvqQ6ksLUKwndL-18" value="" style="edgeStyle=none;curved=1;rounded=0;orthogonalLoop=1;jettySize=auto;html=1;fontSize=12;startSize=8;endSize=8;entryX=0.5;entryY=0;entryDx=0;entryDy=0;" edge="1" parent="1" source="mECNEJzvqQ6ksLUKwndL-3" target="mECNEJzvqQ6ksLUKwndL-19">
          <mxGeometry relative="1" as="geometry">
            <mxPoint x="210" y="400.0000000000002" as="targetPoint" />
          </mxGeometry>
        </mxCell>
        <mxCell id="mECNEJzvqQ6ksLUKwndL-21" value="&lt;span style=&quot;text-wrap-mode: wrap; background-color: rgb(236, 236, 236);&quot;&gt;异常词语增强查询&lt;/span&gt;" style="edgeLabel;html=1;align=center;verticalAlign=middle;resizable=0;points=[];fontSize=12;" vertex="1" connectable="0" parent="mECNEJzvqQ6ksLUKwndL-18">
          <mxGeometry x="-0.0114" y="-1" relative="1" as="geometry">
            <mxPoint as="offset" />
          </mxGeometry>
        </mxCell>
        <mxCell id="mECNEJzvqQ6ksLUKwndL-3" value="分析时间范围" style="rounded=1;whiteSpace=wrap;html=1;" vertex="1" parent="1">
          <mxGeometry x="150" y="220" width="120" height="60" as="geometry" />
        </mxCell>
        <mxCell id="mECNEJzvqQ6ksLUKwndL-10" value="" style="edgeStyle=none;curved=1;rounded=0;orthogonalLoop=1;jettySize=auto;html=1;fontSize=12;startSize=8;endSize=8;" edge="1" parent="1" source="mECNEJzvqQ6ksLUKwndL-5" target="mECNEJzvqQ6ksLUKwndL-9">
          <mxGeometry relative="1" as="geometry" />
        </mxCell>
        <mxCell id="mECNEJzvqQ6ksLUKwndL-5" value="&lt;div&gt;规范格式&lt;/div&gt;&lt;div&gt;解析获取时间区间&lt;/div&gt;&lt;div&gt;YYYY-MM-DD&lt;/div&gt;" style="whiteSpace=wrap;html=1;rounded=1;" vertex="1" parent="1">
          <mxGeometry x="390" y="220" width="120" height="60" as="geometry" />
        </mxCell>
        <mxCell id="mECNEJzvqQ6ksLUKwndL-12" value="" style="edgeStyle=none;curved=1;rounded=0;orthogonalLoop=1;jettySize=auto;html=1;fontSize=12;startSize=8;endSize=8;" edge="1" parent="1" source="mECNEJzvqQ6ksLUKwndL-9" target="mECNEJzvqQ6ksLUKwndL-11">
          <mxGeometry relative="1" as="geometry">
            <Array as="points" />
          </mxGeometry>
        </mxCell>
        <mxCell id="mECNEJzvqQ6ksLUKwndL-13" value="成功" style="edgeLabel;html=1;align=center;verticalAlign=middle;resizable=0;points=[];fontSize=12;" vertex="1" connectable="0" parent="mECNEJzvqQ6ksLUKwndL-12">
          <mxGeometry x="-0.1" y="2" relative="1" as="geometry">
            <mxPoint as="offset" />
          </mxGeometry>
        </mxCell>
        <mxCell id="mECNEJzvqQ6ksLUKwndL-15" value="" style="edgeStyle=none;curved=1;rounded=0;orthogonalLoop=1;jettySize=auto;html=1;fontSize=12;startSize=8;endSize=8;" edge="1" parent="1" source="mECNEJzvqQ6ksLUKwndL-9" target="mECNEJzvqQ6ksLUKwndL-14">
          <mxGeometry relative="1" as="geometry" />
        </mxCell>
        <mxCell id="mECNEJzvqQ6ksLUKwndL-16" value="失败" style="edgeLabel;html=1;align=center;verticalAlign=middle;resizable=0;points=[];fontSize=12;" vertex="1" connectable="0" parent="mECNEJzvqQ6ksLUKwndL-15">
          <mxGeometry x="-0.2587" y="2" relative="1" as="geometry">
            <mxPoint as="offset" />
          </mxGeometry>
        </mxCell>
        <mxCell id="mECNEJzvqQ6ksLUKwndL-9" value="对比时间段&lt;div&gt;上月同期时间&lt;/div&gt;&lt;div&gt;获取&lt;/div&gt;" style="whiteSpace=wrap;html=1;rounded=1;" vertex="1" parent="1">
          <mxGeometry x="390" y="400" width="120" height="60" as="geometry" />
        </mxCell>
        <mxCell id="mECNEJzvqQ6ksLUKwndL-11" value="返回包含开始时间和结束时间的字典" style="whiteSpace=wrap;html=1;rounded=1;" vertex="1" parent="1">
          <mxGeometry x="390" y="580" width="120" height="60" as="geometry" />
        </mxCell>
        <mxCell id="mECNEJzvqQ6ksLUKwndL-14" value="返回默认时间范围&lt;div&gt;上周&lt;/div&gt;&lt;div&gt;上上周&lt;/div&gt;" style="whiteSpace=wrap;html=1;rounded=1;" vertex="1" parent="1">
          <mxGeometry x="630" y="400" width="120" height="60" as="geometry" />
        </mxCell>
        <mxCell id="mECNEJzvqQ6ksLUKwndL-23" value="" style="edgeStyle=none;curved=1;rounded=0;orthogonalLoop=1;jettySize=auto;html=1;fontSize=12;startSize=8;endSize=8;" edge="1" parent="1" source="mECNEJzvqQ6ksLUKwndL-19" target="mECNEJzvqQ6ksLUKwndL-22">
          <mxGeometry relative="1" as="geometry" />
        </mxCell>
        <mxCell id="mECNEJzvqQ6ksLUKwndL-24" value="规范查询语句" style="edgeLabel;html=1;align=center;verticalAlign=middle;resizable=0;points=[];fontSize=12;" vertex="1" connectable="0" parent="mECNEJzvqQ6ksLUKwndL-23">
          <mxGeometry x="0.0976" y="1" relative="1" as="geometry">
            <mxPoint as="offset" />
          </mxGeometry>
        </mxCell>
        <mxCell id="mECNEJzvqQ6ksLUKwndL-26" value="" style="edgeStyle=none;curved=1;rounded=0;orthogonalLoop=1;jettySize=auto;html=1;fontSize=12;startSize=8;endSize=8;" edge="1" parent="1" source="mECNEJzvqQ6ksLUKwndL-19" target="mECNEJzvqQ6ksLUKwndL-25">
          <mxGeometry relative="1" as="geometry" />
        </mxCell>
        <mxCell id="mECNEJzvqQ6ksLUKwndL-19" value="生成改进的问题描述" style="whiteSpace=wrap;html=1;rounded=1;" vertex="1" parent="1">
          <mxGeometry x="150" y="440" width="120" height="60" as="geometry" />
        </mxCell>
        <mxCell id="mECNEJzvqQ6ksLUKwndL-22" value="&lt;div&gt;组合查询时间区间&lt;/div&gt;提取可能异常的店铺id&lt;div&gt;组合第一个店铺id&lt;/div&gt;" style="whiteSpace=wrap;html=1;rounded=1;" vertex="1" parent="1">
          <mxGeometry x="-90" y="440" width="120" height="60" as="geometry" />
        </mxCell>
        <mxCell id="mECNEJzvqQ6ksLUKwndL-28" value="" style="edgeStyle=none;curved=1;rounded=0;orthogonalLoop=1;jettySize=auto;html=1;fontSize=12;startSize=8;endSize=8;" edge="1" parent="1" source="mECNEJzvqQ6ksLUKwndL-25" target="mECNEJzvqQ6ksLUKwndL-27">
          <mxGeometry relative="1" as="geometry" />
        </mxCell>
        <mxCell id="mECNEJzvqQ6ksLUKwndL-75" value="" style="edgeStyle=none;curved=1;rounded=0;orthogonalLoop=1;jettySize=auto;html=1;fontSize=12;startSize=8;endSize=8;" edge="1" parent="1" source="mECNEJzvqQ6ksLUKwndL-25" target="mECNEJzvqQ6ksLUKwndL-74">
          <mxGeometry relative="1" as="geometry" />
        </mxCell>
        <mxCell id="mECNEJzvqQ6ksLUKwndL-25" value="生成sql" style="whiteSpace=wrap;html=1;rounded=1;" vertex="1" parent="1">
          <mxGeometry x="150" y="620" width="120" height="60" as="geometry" />
        </mxCell>
        <mxCell id="mECNEJzvqQ6ksLUKwndL-30" value="" style="edgeStyle=none;curved=1;rounded=0;orthogonalLoop=1;jettySize=auto;html=1;fontSize=12;startSize=8;endSize=8;" edge="1" parent="1" source="mECNEJzvqQ6ksLUKwndL-27" target="mECNEJzvqQ6ksLUKwndL-29">
          <mxGeometry relative="1" as="geometry" />
        </mxCell>
        <mxCell id="mECNEJzvqQ6ksLUKwndL-27" value="读取表结构ddl" style="whiteSpace=wrap;html=1;rounded=1;" vertex="1" parent="1">
          <mxGeometry x="-90" y="620" width="120" height="60" as="geometry" />
        </mxCell>
        <mxCell id="mECNEJzvqQ6ksLUKwndL-32" value="" style="edgeStyle=none;curved=1;rounded=0;orthogonalLoop=1;jettySize=auto;html=1;fontSize=12;startSize=8;endSize=8;" edge="1" parent="1" source="mECNEJzvqQ6ksLUKwndL-29" target="mECNEJzvqQ6ksLUKwndL-31">
          <mxGeometry relative="1" as="geometry" />
        </mxCell>
        <mxCell id="mECNEJzvqQ6ksLUKwndL-29" value="读取文档docs" style="whiteSpace=wrap;html=1;rounded=1;" vertex="1" parent="1">
          <mxGeometry x="-90" y="730" width="120" height="60" as="geometry" />
        </mxCell>
        <mxCell id="mECNEJzvqQ6ksLUKwndL-34" value="" style="edgeStyle=none;curved=1;rounded=0;orthogonalLoop=1;jettySize=auto;html=1;fontSize=12;startSize=8;endSize=8;" edge="1" parent="1" source="mECNEJzvqQ6ksLUKwndL-31" target="mECNEJzvqQ6ksLUKwndL-33">
          <mxGeometry relative="1" as="geometry" />
        </mxCell>
        <mxCell id="mECNEJzvqQ6ksLUKwndL-31" value="读取示例examples" style="whiteSpace=wrap;html=1;rounded=1;" vertex="1" parent="1">
          <mxGeometry x="-90" y="830" width="120" height="60" as="geometry" />
        </mxCell>
        <mxCell id="mECNEJzvqQ6ksLUKwndL-36" value="" style="edgeStyle=none;curved=1;rounded=0;orthogonalLoop=1;jettySize=auto;html=1;fontSize=12;startSize=8;endSize=8;" edge="1" parent="1" source="mECNEJzvqQ6ksLUKwndL-33" target="mECNEJzvqQ6ksLUKwndL-35">
          <mxGeometry relative="1" as="geometry" />
        </mxCell>
        <mxCell id="mECNEJzvqQ6ksLUKwndL-33" value="构建查询提示词&lt;div&gt;prompt&lt;/div&gt;" style="whiteSpace=wrap;html=1;rounded=1;" vertex="1" parent="1">
          <mxGeometry x="-90" y="930" width="120" height="60" as="geometry" />
        </mxCell>
        <mxCell id="mECNEJzvqQ6ksLUKwndL-38" value="" style="edgeStyle=none;curved=1;rounded=0;orthogonalLoop=1;jettySize=auto;html=1;fontSize=12;startSize=8;endSize=8;" edge="1" parent="1" source="mECNEJzvqQ6ksLUKwndL-35" target="mECNEJzvqQ6ksLUKwndL-37">
          <mxGeometry relative="1" as="geometry" />
        </mxCell>
        <mxCell id="mECNEJzvqQ6ksLUKwndL-42" value="成功" style="edgeLabel;html=1;align=center;verticalAlign=middle;resizable=0;points=[];fontSize=12;" vertex="1" connectable="0" parent="mECNEJzvqQ6ksLUKwndL-38">
          <mxGeometry x="-0.219" y="-4" relative="1" as="geometry">
            <mxPoint as="offset" />
          </mxGeometry>
        </mxCell>
        <mxCell id="mECNEJzvqQ6ksLUKwndL-40" value="" style="edgeStyle=none;curved=1;rounded=0;orthogonalLoop=1;jettySize=auto;html=1;fontSize=12;startSize=8;endSize=8;" edge="1" parent="1" source="mECNEJzvqQ6ksLUKwndL-35" target="mECNEJzvqQ6ksLUKwndL-39">
          <mxGeometry relative="1" as="geometry" />
        </mxCell>
        <mxCell id="mECNEJzvqQ6ksLUKwndL-41" value="失败" style="edgeLabel;html=1;align=center;verticalAlign=middle;resizable=0;points=[];fontSize=12;" vertex="1" connectable="0" parent="mECNEJzvqQ6ksLUKwndL-40">
          <mxGeometry x="-0.0056" y="3" relative="1" as="geometry">
            <mxPoint as="offset" />
          </mxGeometry>
        </mxCell>
        <mxCell id="mECNEJzvqQ6ksLUKwndL-35" value="调用deepseek api&lt;div&gt;生成sql&lt;/div&gt;&lt;div&gt;deepseek-v3-241226&lt;/div&gt;" style="whiteSpace=wrap;html=1;rounded=1;" vertex="1" parent="1">
          <mxGeometry x="-90" y="1040" width="120" height="60" as="geometry" />
        </mxCell>
        <mxCell id="mECNEJzvqQ6ksLUKwndL-45" value="" style="edgeStyle=none;curved=1;rounded=0;orthogonalLoop=1;jettySize=auto;html=1;fontSize=12;startSize=8;endSize=8;" edge="1" parent="1" source="mECNEJzvqQ6ksLUKwndL-37" target="mECNEJzvqQ6ksLUKwndL-44">
          <mxGeometry relative="1" as="geometry" />
        </mxCell>
        <mxCell id="mECNEJzvqQ6ksLUKwndL-37" value="清理sql" style="whiteSpace=wrap;html=1;rounded=1;" vertex="1" parent="1">
          <mxGeometry x="-90" y="1169" width="120" height="60" as="geometry" />
        </mxCell>
        <mxCell id="mECNEJzvqQ6ksLUKwndL-43" style="edgeStyle=none;curved=1;rounded=0;orthogonalLoop=1;jettySize=auto;html=1;entryX=0;entryY=0.5;entryDx=0;entryDy=0;fontSize=12;startSize=8;endSize=8;" edge="1" parent="1" source="mECNEJzvqQ6ksLUKwndL-39" target="mECNEJzvqQ6ksLUKwndL-37">
          <mxGeometry relative="1" as="geometry">
            <Array as="points">
              <mxPoint x="-160" y="1190" />
            </Array>
          </mxGeometry>
        </mxCell>
        <mxCell id="mECNEJzvqQ6ksLUKwndL-39" value="使用备用sql" style="whiteSpace=wrap;html=1;rounded=1;" vertex="1" parent="1">
          <mxGeometry x="-270" y="1100" width="120" height="60" as="geometry" />
        </mxCell>
        <mxCell id="mECNEJzvqQ6ksLUKwndL-47" value="" style="edgeStyle=none;curved=1;rounded=0;orthogonalLoop=1;jettySize=auto;html=1;fontSize=12;startSize=8;endSize=8;" edge="1" parent="1" source="mECNEJzvqQ6ksLUKwndL-44" target="mECNEJzvqQ6ksLUKwndL-46">
          <mxGeometry relative="1" as="geometry" />
        </mxCell>
        <mxCell id="mECNEJzvqQ6ksLUKwndL-44" value="去除解释性文字" style="whiteSpace=wrap;html=1;rounded=1;" vertex="1" parent="1">
          <mxGeometry x="-90" y="1280" width="120" height="60" as="geometry" />
        </mxCell>
        <mxCell id="mECNEJzvqQ6ksLUKwndL-49" value="" style="edgeStyle=none;curved=1;rounded=0;orthogonalLoop=1;jettySize=auto;html=1;fontSize=12;startSize=8;endSize=8;" edge="1" parent="1" source="mECNEJzvqQ6ksLUKwndL-46" target="mECNEJzvqQ6ksLUKwndL-48">
          <mxGeometry relative="1" as="geometry" />
        </mxCell>
        <mxCell id="mECNEJzvqQ6ksLUKwndL-46" value="去除前导说明" style="whiteSpace=wrap;html=1;rounded=1;" vertex="1" parent="1">
          <mxGeometry x="-90" y="1380" width="120" height="60" as="geometry" />
        </mxCell>
        <mxCell id="mECNEJzvqQ6ksLUKwndL-51" value="" style="edgeStyle=none;curved=1;rounded=0;orthogonalLoop=1;jettySize=auto;html=1;fontSize=12;startSize=8;endSize=8;" edge="1" parent="1" source="mECNEJzvqQ6ksLUKwndL-48" target="mECNEJzvqQ6ksLUKwndL-50">
          <mxGeometry relative="1" as="geometry" />
        </mxCell>
        <mxCell id="mECNEJzvqQ6ksLUKwndL-57" value="否" style="edgeLabel;html=1;align=center;verticalAlign=middle;resizable=0;points=[];fontSize=12;" vertex="1" connectable="0" parent="mECNEJzvqQ6ksLUKwndL-51">
          <mxGeometry x="-0.2241" y="-3" relative="1" as="geometry">
            <mxPoint y="-1" as="offset" />
          </mxGeometry>
        </mxCell>
        <mxCell id="mECNEJzvqQ6ksLUKwndL-53" value="" style="edgeStyle=none;curved=1;rounded=0;orthogonalLoop=1;jettySize=auto;html=1;fontSize=12;startSize=8;endSize=8;" edge="1" parent="1" source="mECNEJzvqQ6ksLUKwndL-48" target="mECNEJzvqQ6ksLUKwndL-52">
          <mxGeometry relative="1" as="geometry" />
        </mxCell>
        <mxCell id="mECNEJzvqQ6ksLUKwndL-54" value="是" style="edgeLabel;html=1;align=center;verticalAlign=middle;resizable=0;points=[];fontSize=12;" vertex="1" connectable="0" parent="mECNEJzvqQ6ksLUKwndL-53">
          <mxGeometry x="-0.2898" y="2" relative="1" as="geometry">
            <mxPoint as="offset" />
          </mxGeometry>
        </mxCell>
        <mxCell id="mECNEJzvqQ6ksLUKwndL-48" value="sql中是否有&lt;div&gt;select或&lt;/div&gt;&lt;div&gt;with&lt;/div&gt;" style="rhombus;whiteSpace=wrap;html=1;rounded=1;" vertex="1" parent="1">
          <mxGeometry x="-90" y="1500" width="120" height="100" as="geometry" />
        </mxCell>
        <mxCell id="mECNEJzvqQ6ksLUKwndL-62" style="edgeStyle=none;curved=1;rounded=0;orthogonalLoop=1;jettySize=auto;html=1;entryX=0;entryY=0.5;entryDx=0;entryDy=0;fontSize=12;startSize=8;endSize=8;" edge="1" parent="1" source="mECNEJzvqQ6ksLUKwndL-50" target="mECNEJzvqQ6ksLUKwndL-59">
          <mxGeometry relative="1" as="geometry">
            <Array as="points">
              <mxPoint x="-150" y="1790" />
            </Array>
          </mxGeometry>
        </mxCell>
        <mxCell id="mECNEJzvqQ6ksLUKwndL-50" value="返回原始sql" style="whiteSpace=wrap;html=1;rounded=1;" vertex="1" parent="1">
          <mxGeometry x="-240" y="1670" width="110" height="60" as="geometry" />
        </mxCell>
        <mxCell id="mECNEJzvqQ6ksLUKwndL-60" value="" style="edgeStyle=none;curved=1;rounded=0;orthogonalLoop=1;jettySize=auto;html=1;fontSize=12;startSize=8;endSize=8;" edge="1" parent="1" source="mECNEJzvqQ6ksLUKwndL-52" target="mECNEJzvqQ6ksLUKwndL-59">
          <mxGeometry relative="1" as="geometry" />
        </mxCell>
        <mxCell id="mECNEJzvqQ6ksLUKwndL-52" value="返回清理后的sql" style="whiteSpace=wrap;html=1;rounded=1;" vertex="1" parent="1">
          <mxGeometry x="-90" y="1670" width="120" height="60" as="geometry" />
        </mxCell>
        <mxCell id="mECNEJzvqQ6ksLUKwndL-63" style="edgeStyle=none;curved=1;rounded=0;orthogonalLoop=1;jettySize=auto;html=1;entryX=0;entryY=1;entryDx=0;entryDy=0;fontSize=12;startSize=8;endSize=8;" edge="1" parent="1">
          <mxGeometry relative="1" as="geometry">
            <mxPoint x="10" y="1790" as="sourcePoint" />
            <mxPoint x="160" y="680" as="targetPoint" />
            <Array as="points">
              <mxPoint x="70" y="1730" />
              <mxPoint x="80" y="1570" />
              <mxPoint x="80" y="960" />
            </Array>
          </mxGeometry>
        </mxCell>
        <mxCell id="mECNEJzvqQ6ksLUKwndL-59" value="返回sql" style="whiteSpace=wrap;html=1;rounded=1;" vertex="1" parent="1">
          <mxGeometry x="-90" y="1790" width="120" height="60" as="geometry" />
        </mxCell>
        <mxCell id="mECNEJzvqQ6ksLUKwndL-81" value="" style="edgeStyle=none;curved=1;rounded=0;orthogonalLoop=1;jettySize=auto;html=1;fontSize=12;startSize=8;endSize=8;" edge="1" parent="1" source="mECNEJzvqQ6ksLUKwndL-64" target="mECNEJzvqQ6ksLUKwndL-69">
          <mxGeometry relative="1" as="geometry" />
        </mxCell>
        <mxCell id="mECNEJzvqQ6ksLUKwndL-82" value="否" style="edgeLabel;html=1;align=center;verticalAlign=middle;resizable=0;points=[];fontSize=12;" vertex="1" connectable="0" parent="mECNEJzvqQ6ksLUKwndL-81">
          <mxGeometry x="-0.3278" y="1" relative="1" as="geometry">
            <mxPoint as="offset" />
          </mxGeometry>
        </mxCell>
        <mxCell id="mECNEJzvqQ6ksLUKwndL-64" value="sql是否包含&lt;div&gt;resource_key和&lt;/div&gt;&lt;div&gt;app_id&lt;/div&gt;" style="rhombus;whiteSpace=wrap;html=1;rounded=1;" vertex="1" parent="1">
          <mxGeometry x="420" y="740" width="120" height="80" as="geometry" />
        </mxCell>
        <mxCell id="mECNEJzvqQ6ksLUKwndL-73" value="" style="edgeStyle=none;curved=1;rounded=0;orthogonalLoop=1;jettySize=auto;html=1;fontSize=12;startSize=8;endSize=8;" edge="1" parent="1" source="mECNEJzvqQ6ksLUKwndL-66" target="mECNEJzvqQ6ksLUKwndL-72">
          <mxGeometry relative="1" as="geometry" />
        </mxCell>
        <mxCell id="mECNEJzvqQ6ksLUKwndL-87" value="" style="edgeStyle=none;curved=1;rounded=0;orthogonalLoop=1;jettySize=auto;html=1;fontSize=12;startSize=8;endSize=8;" edge="1" parent="1" source="mECNEJzvqQ6ksLUKwndL-66" target="mECNEJzvqQ6ksLUKwndL-86">
          <mxGeometry relative="1" as="geometry" />
        </mxCell>
        <mxCell id="mECNEJzvqQ6ksLUKwndL-66" value="执行sql语句" style="whiteSpace=wrap;html=1;rounded=1;" vertex="1" parent="1">
          <mxGeometry x="150" y="995" width="120" height="60" as="geometry" />
        </mxCell>
        <mxCell id="mECNEJzvqQ6ksLUKwndL-85" style="edgeStyle=none;curved=1;rounded=0;orthogonalLoop=1;jettySize=auto;html=1;entryX=0.5;entryY=0;entryDx=0;entryDy=0;fontSize=12;startSize=8;endSize=8;" edge="1" parent="1" source="mECNEJzvqQ6ksLUKwndL-69" target="mECNEJzvqQ6ksLUKwndL-66">
          <mxGeometry relative="1" as="geometry">
            <Array as="points">
              <mxPoint x="290" y="900" />
            </Array>
          </mxGeometry>
        </mxCell>
        <mxCell id="mECNEJzvqQ6ksLUKwndL-69" value="新增，并确认&lt;div&gt;group by中同步新增&lt;/div&gt;" style="whiteSpace=wrap;html=1;rounded=1;" vertex="1" parent="1">
          <mxGeometry x="420" y="870" width="120" height="60" as="geometry" />
        </mxCell>
        <mxCell id="mECNEJzvqQ6ksLUKwndL-72" value="获取结果并转化&lt;div&gt;为pd.DataFrame&lt;/div&gt;&lt;div&gt;格式&lt;/div&gt;" style="whiteSpace=wrap;html=1;rounded=1;" vertex="1" parent="1">
          <mxGeometry x="390" y="995" width="120" height="60" as="geometry" />
        </mxCell>
        <mxCell id="mECNEJzvqQ6ksLUKwndL-78" value="" style="edgeStyle=none;curved=1;rounded=0;orthogonalLoop=1;jettySize=auto;html=1;fontSize=12;startSize=8;endSize=8;" edge="1" parent="1" source="mECNEJzvqQ6ksLUKwndL-74" target="mECNEJzvqQ6ksLUKwndL-64">
          <mxGeometry relative="1" as="geometry" />
        </mxCell>
        <mxCell id="mECNEJzvqQ6ksLUKwndL-79" value="是" style="edgeLabel;html=1;align=center;verticalAlign=middle;resizable=0;points=[];fontSize=12;" vertex="1" connectable="0" parent="mECNEJzvqQ6ksLUKwndL-78">
          <mxGeometry x="0.0428" y="-2" relative="1" as="geometry">
            <mxPoint as="offset" />
          </mxGeometry>
        </mxCell>
        <mxCell id="mECNEJzvqQ6ksLUKwndL-83" style="edgeStyle=none;curved=1;rounded=0;orthogonalLoop=1;jettySize=auto;html=1;entryX=0.5;entryY=0;entryDx=0;entryDy=0;fontSize=12;startSize=8;endSize=8;" edge="1" parent="1" source="mECNEJzvqQ6ksLUKwndL-74" target="mECNEJzvqQ6ksLUKwndL-66">
          <mxGeometry relative="1" as="geometry" />
        </mxCell>
        <mxCell id="mECNEJzvqQ6ksLUKwndL-84" value="否" style="edgeLabel;html=1;align=center;verticalAlign=middle;resizable=0;points=[];fontSize=12;" vertex="1" connectable="0" parent="mECNEJzvqQ6ksLUKwndL-83">
          <mxGeometry x="-0.1626" relative="1" as="geometry">
            <mxPoint as="offset" />
          </mxGeometry>
        </mxCell>
        <mxCell id="mECNEJzvqQ6ksLUKwndL-74" value="是否是资源相关查询" style="rhombus;whiteSpace=wrap;html=1;rounded=1;" vertex="1" parent="1">
          <mxGeometry x="140" y="740" width="140" height="80" as="geometry" />
        </mxCell>
        <mxCell id="mECNEJzvqQ6ksLUKwndL-89" value="" style="edgeStyle=none;curved=1;rounded=0;orthogonalLoop=1;jettySize=auto;html=1;fontSize=12;startSize=8;endSize=8;" edge="1" parent="1" source="mECNEJzvqQ6ksLUKwndL-86" target="mECNEJzvqQ6ksLUKwndL-88">
          <mxGeometry relative="1" as="geometry" />
        </mxCell>
        <mxCell id="mECNEJzvqQ6ksLUKwndL-86" value="资源相关查询&lt;div&gt;确保结果包含&lt;/div&gt;&lt;div&gt;resource_key&lt;span style=&quot;background-color: transparent; color: light-dark(rgb(0, 0, 0), rgb(255, 255, 255));&quot;&gt;并&lt;/span&gt;&lt;/div&gt;&lt;div&gt;&lt;span style=&quot;background-color: transparent; color: light-dark(rgb(0, 0, 0), rgb(255, 255, 255));&quot;&gt;重新排序结果字段&lt;/span&gt;&lt;/div&gt;" style="whiteSpace=wrap;html=1;rounded=1;" vertex="1" parent="1">
          <mxGeometry x="150" y="1109" width="120" height="60" as="geometry" />
        </mxCell>
        <mxCell id="mECNEJzvqQ6ksLUKwndL-88" value="准换结果为&lt;div&gt;字典列表&lt;/div&gt;" style="whiteSpace=wrap;html=1;rounded=1;" vertex="1" parent="1">
          <mxGeometry x="150" y="1240" width="120" height="60" as="geometry" />
        </mxCell>
      </root>
    </mxGraphModel>
  </diagram>
</mxfile>
